<svg width="526" height="647" viewBox="0 0 526 647" fill="none" xmlns="http://www.w3.org/2000/svg">
<mask id="mask0_0_43" style="mask-type:luminance" maskUnits="userSpaceOnUse" x="0" y="0" width="526" height="647">
<path d="M525.268 0H0V646.486H525.268V0Z" fill="white"/>
</mask>
<g mask="url(#mask0_0_43)">
<path d="M17.5 416C26.0604 416 33 408.613 33 399.5C33 390.387 26.0604 383 17.5 383C8.93959 383 2 390.387 2 399.5C2 408.613 8.93959 416 17.5 416Z" fill="#87A4BD"/>
<path d="M13.7967 407.846C13.4991 407.846 13.2029 407.756 12.9428 407.578C12.4877 407.267 12.2159 406.737 12.2159 406.161V394.255C12.2159 393.648 12.5104 393.104 13.0037 392.799C13.4974 392.494 14.0874 392.492 14.5824 392.794L25.4571 399.408C25.9748 399.723 26.2796 400.313 26.2525 400.947C26.2256 401.581 25.872 402.138 25.3302 402.402L14.4554 407.693C14.2446 407.795 14.0203 407.846 13.7967 407.846Z" fill="white"/>
<path d="M519.268 398.6H169.268C165.958 398.6 163.268 401.29 163.268 404.6C163.268 407.91 165.958 410.6 169.268 410.6H519.268C522.578 410.6 525.268 407.91 525.268 404.6C525.268 401.29 522.578 398.6 519.268 398.6Z" fill="#87A4BD"/>
<path d="M400.768 398.6V410.6H169.268C165.958 410.6 163.268 407.91 163.268 404.6C163.268 401.29 165.958 398.6 169.268 398.6H400.768Z" fill="#6D859B"/>
<path d="M70.0762 0C57.2703 0 46.889 10.3813 46.889 23.1872V348.472H48.9329V161.135C48.9329 73.2711 120.16 2.04382 208.024 2.04382L513.253 1.67219L512.881 0H70.0762Z" fill="#87A4BD"/>
<path d="M127.704 79.7702C132.477 79.7702 136.346 75.8149 136.346 70.9357C136.346 66.0566 132.477 62.1012 127.704 62.1012C122.931 62.1012 119.062 66.0566 119.062 70.9357C119.062 75.8149 122.931 79.7702 127.704 79.7702Z" fill="#6D859B"/>
<path d="M157.558 79.7702C162.331 79.7702 166.2 75.8149 166.2 70.9357C166.2 66.0566 162.331 62.1012 157.558 62.1012C152.785 62.1012 148.916 66.0566 148.916 70.9357C148.916 75.8149 152.785 79.7702 157.558 79.7702Z" fill="#6D859B"/>
<path d="M187.412 79.7702C192.185 79.7702 196.054 75.8149 196.054 70.9357C196.054 66.0566 192.185 62.1012 187.412 62.1012C182.639 62.1012 178.77 66.0566 178.77 70.9357C178.77 75.8149 182.639 79.7702 187.412 79.7702Z" fill="#6D859B"/>
<path d="M68.3676 637.373L80.2267 637.372L85.8682 591.629L68.3652 591.63L68.3676 637.373Z" fill="#FFB6B6"/>
<path d="M108.998 637.104C109.368 637.726 109.563 639.733 109.563 640.456C109.563 642.679 107.761 644.481 105.538 644.481H68.8112C67.2947 644.481 66.0653 643.252 66.0653 641.735V640.206C66.0653 640.206 64.2485 635.611 67.989 629.946C67.989 629.946 72.6379 634.382 79.5847 627.435L81.6332 623.724L96.4617 634.569L104.681 635.58C106.479 635.802 108.073 635.546 108.998 637.104Z" fill="#2F2E41"/>
<path d="M143.545 598.6L155.106 601.243L170.803 557.909L153.74 554.008L143.545 598.6Z" fill="#FFB6B6"/>
<path d="M183.213 607.396C183.434 608.085 183.177 610.085 183.015 610.79C182.52 612.957 180.361 614.312 178.194 613.817L142.392 605.629C140.914 605.291 139.99 603.818 140.328 602.34L140.669 600.849C140.669 600.849 139.922 595.964 144.831 591.276C144.831 591.276 148.374 596.636 156.695 591.413L159.519 588.252L171.557 602.13L179.344 604.949C181.047 605.565 182.658 605.672 183.213 607.396Z" fill="#2F2E41"/>
<path d="M61 382.921L47.1417 401.921L65 608.921H87.9606L92 507.921L103 430.921L160 490.921L148 566.921L171 575.921L197 478.921L153 405.921L147 386.921L61 382.921Z" fill="#2F2E41"/>
<path d="M124 217.921H95.3307L86 229.921L53 244.921L58 367.921L47 401.921C47 401.921 99 426.921 147 386.921L146 350.921L163 246.921L133 227.921L124 217.921Z" fill="#6D859B"/>
<path d="M21.3906 396.036C22.2658 393.095 23.7326 390.595 25.4639 388.821L32.0314 360.278L45.5219 363.8L37.4074 392.375C37.887 394.807 37.7486 397.702 36.8734 400.643C34.8741 407.362 29.7874 411.777 25.512 410.505C21.2365 409.232 19.3913 402.754 21.3906 396.036Z" fill="#FFB6B6"/>
<path d="M68.4253 246.956L59.629 242.455C59.629 242.455 51.1759 243.036 47.2555 250.876C43.3352 258.717 43.3352 315.17 43.3352 315.17L25.3017 380.247L40.983 388.872L62.301 328.499L68.4253 246.956Z" fill="#6D859B"/>
<path d="M163.285 403.419C163.225 400.351 163.862 397.524 164.972 395.307L162.549 366.118L176.471 365.372L177.43 395.061C178.627 397.232 179.375 400.032 179.436 403.1C179.574 410.108 176.071 415.861 171.611 415.949C167.151 416.037 163.424 410.427 163.285 403.419Z" fill="#FFB6B6"/>
<path d="M162.759 247.096L153.011 245.483C153.011 245.483 145.134 248.607 143.784 257.268C142.434 265.93 159.6 319.709 159.6 319.709L162.21 387.189L179.771 390.636L181.721 326.64L162.759 247.096Z" fill="#6D859B"/>
<path d="M112.097 212.793C127.539 212.793 140.057 200.275 140.057 184.832C140.057 169.39 127.539 156.872 112.097 156.872C96.6545 156.872 84.1361 169.39 84.1361 184.832C84.1361 200.275 96.6545 212.793 112.097 212.793Z" fill="#FFB6B6"/>
<path d="M374.949 239.337C381.832 239.337 387.412 233.875 387.412 227.137C387.412 220.398 381.832 214.936 374.949 214.936C368.065 214.936 362.485 220.398 362.485 227.137C362.485 233.875 368.065 239.337 374.949 239.337Z" fill="#87A4BD"/>
<path d="M474.861 230.963H407.776C405.475 230.963 403.603 229.09 403.603 226.789C403.603 224.487 405.475 222.615 407.776 222.615H474.861C477.163 222.615 479.035 224.487 479.035 226.789C479.035 229.09 477.163 230.963 474.861 230.963Z" fill="#2F2E41"/>
<path d="M463.449 260.921H277.551C265.668 260.921 256 251.253 256 239.37V148.472C256 136.589 265.668 126.921 277.551 126.921H463.449C475.332 126.921 485 136.589 485 148.472V239.37C485 251.253 475.332 260.921 463.449 260.921ZM277.551 128.921C266.771 128.921 258 137.692 258 148.472V239.37C258 250.151 266.771 258.921 277.551 258.921H463.449C474.229 258.921 483 250.151 483 239.37V148.472C483 137.692 474.229 128.921 463.449 128.921H277.551Z" fill="#2F2E41"/>
<path d="M143.291 166.827C136 167.407 137 163.921 137 163.921L137.656 157.987C137.467 156.959 137.11 156.13 136.403 155.729C134.739 154.788 133.05 156.568 131.288 155.827C129.68 155.152 128.067 154.474 126.383 154.02C124.246 153.443 123.207 155.749 121 155.921C118.913 156.084 115.671 154.068 113.636 154.563C111.846 155 114.185 152.223 112 151.921L105 155.921C105 155.921 102.325 158.253 102 155.921C96.2876 156.84 91.8194 152.848 89.9282 162.561C88.7319 168.704 82.6066 172.056 80.9748 178.098C78.6506 186.704 82.5968 194.161 87.8132 200.129C89.1026 201.604 87.0656 204.186 88.0058 205.905C88.8799 207.502 90.8536 208.252 91.7446 209.841C92.5066 211.199 93.8827 208.938 94.7651 210.222C95.5266 211.329 92.6563 211.902 94 211.921C94.6594 211.93 96.3565 212.066 97 211.921C99.435 212.078 97.5249 211.98 99.5593 212.107C100.446 206.936 96.981 205.447 95.1714 200.523C94.5675 198.879 93.8174 197.278 93.4485 195.567C93.0795 193.856 93.1321 191.968 94.0556 190.481C95.4682 188.205 98.7597 187.505 101.159 188.695C103.558 189.886 104.972 192.628 104.954 195.306C107.026 193.549 108.649 191.327 109.79 188.872L109 184.921C109 184.921 109.927 185.68 110.722 186.49C112.177 181.946 112.071 176.887 110.112 172.527C111.135 171.719 118.63 174.969 125 176.415V175.921L130 176.921C134.942 177.818 136.281 179.043 135 173.921C134.582 172.248 137 179.921 141 177.921C143.506 176.668 140.513 174.277 142.146 172C143.207 170.519 143.532 168.646 143.291 166.827Z" fill="#2F2E41"/>
<path d="M405.682 330.555H210.601V331.555H405.682V330.555Z" fill="#3F3D56"/>
<path d="M300.123 276.065L291.893 272.167C295.269 276.878 298.177 284.235 299.734 290.089C302.371 284.636 306.621 277.963 310.828 273.977L302.13 276.215C307.49 249.947 327.649 231.089 350.734 231.089V229.089C326.621 229.089 305.595 248.737 300.123 276.065Z" fill="#3F3D56"/>
<path d="M338.002 316.089H286.002C283.797 316.089 282.002 314.295 282.002 312.089C282.002 309.884 283.797 308.089 286.002 308.089H338.002C340.208 308.089 342.002 309.884 342.002 312.089C342.002 314.295 340.208 316.089 338.002 316.089Z" fill="#87A4BD"/>
</g>
</svg>
