<svg width="752" height="540" viewBox="0 0 752 540" fill="none" xmlns="http://www.w3.org/2000/svg">
<path d="M253.43 95.15H19.53C10.61 95.15 3.35001 87.89 3.35001 78.97C3.35001 70.05 10.61 62.79 19.53 62.79H253.43C262.35 62.79 269.61 70.05 269.61 78.97C269.61 87.89 262.35 95.15 253.43 95.15ZM19.53 64.79C11.71 64.79 5.35001 71.15 5.35001 78.97C5.35001 86.79 11.71 93.15 19.53 93.15H253.43C261.25 93.15 267.61 86.79 267.61 78.97C267.61 71.15 261.25 64.79 253.43 64.79H19.53Z" fill="#E2E3E4"/>
<path d="M253.43 284.5H19.53C10.88 284.5 3.85001 277.47 3.85001 268.82C3.85001 260.17 10.88 253.14 19.53 253.14H253.43C262.08 253.14 269.11 260.17 269.11 268.82C269.11 277.47 262.08 284.5 253.43 284.5Z" fill="#FBB03B"/>
<path d="M176.78 31.36H15.68C7.03 31.36 0 24.33 0 15.68C0 7.03 7.03 0 15.68 0H176.78C185.43 0 192.46 7.03 192.46 15.68C192.46 24.33 185.43 31.36 176.78 31.36Z" fill="#E2E3E4"/>
<path d="M253.43 158.43H19.53C10.61 158.43 3.35001 151.17 3.35001 142.25C3.35001 133.33 10.61 126.07 19.53 126.07H253.43C262.35 126.07 269.61 133.33 269.61 142.25C269.61 151.17 262.35 158.43 253.43 158.43ZM19.53 128.07C11.71 128.07 5.35001 134.43 5.35001 142.25C5.35001 150.07 11.71 156.43 19.53 156.43H253.43C261.25 156.43 267.61 150.07 267.61 142.25C267.61 134.43 261.25 128.07 253.43 128.07H19.53Z" fill="#E2E3E4"/>
<path d="M253.43 221.72H19.53C10.61 221.72 3.35001 214.46 3.35001 205.54C3.35001 196.62 10.61 189.36 19.53 189.36H253.43C262.35 189.36 269.61 196.62 269.61 205.54C269.61 214.46 262.35 221.72 253.43 221.72ZM19.53 191.36C11.71 191.36 5.35001 197.72 5.35001 205.54C5.35001 213.36 11.71 219.72 19.53 219.72H253.43C261.25 219.72 267.61 213.36 267.61 205.54C267.61 197.72 261.25 191.36 253.43 191.36H19.53Z" fill="#E2E3E4"/>
<path d="M11.49 51.17H72.79C74.25 51.17 75.44 52.35 75.44 53.82C75.44 55.28 74.25 56.47 72.79 56.47H11.49C10.03 56.47 8.84 55.29 8.84 53.82C8.84 52.36 10.03 51.17 11.49 51.17Z" fill="#E2E3E4"/>
<path d="M11.49 115.95H72.79C74.25 115.95 75.44 117.13 75.44 118.59C75.44 120.05 74.25 121.24 72.79 121.24H11.49C10.03 121.24 8.84 120.06 8.84 118.6C8.84 117.14 10.03 115.95 11.49 115.95Z" fill="#E2E3E4"/>
<path d="M11.49 180.74H72.79C74.25 180.74 75.44 181.92 75.44 183.39C75.44 184.85 74.25 186.03 72.79 186.03H11.49C10.03 186.03 8.84 184.85 8.84 183.38C8.84 181.92 10.03 180.74 11.49 180.74Z" fill="#E2E3E4"/>
</svg>
