<svg width="941" height="434" viewBox="0 0 941 434" fill="none" xmlns="http://www.w3.org/2000/svg">
<path d="M243.852 280.375C243 279.862 242.27 279.169 241.715 278.343C241.16 277.518 240.792 276.581 240.639 275.599C240.485 274.616 240.548 273.612 240.824 272.656C241.101 271.701 241.583 270.818 242.238 270.069L230.257 249.07L242.794 249.88L252.249 269.697C253.434 270.88 254.144 272.456 254.245 274.128C254.345 275.799 253.829 277.449 252.794 278.766C251.758 280.082 250.276 280.973 248.628 281.269C246.98 281.566 245.281 281.248 243.852 280.375Z" fill="#FFB6B6"/>
<path d="M151.623 423.528H159.918L163.864 391.535L151.622 391.536L151.623 423.528Z" fill="#FFB6B6"/>
<path d="M149.508 420.82L165.842 420.82C168.603 420.82 171.251 421.917 173.204 423.869C175.156 425.821 176.252 428.469 176.253 431.229V431.568L149.508 431.569L149.508 420.82Z" fill="#2F2E41"/>
<path d="M208.454 423.528H216.748L220.694 391.535L208.452 391.536L208.454 423.528Z" fill="#FFB6B6"/>
<path d="M206.338 420.82L222.672 420.82C225.433 420.82 228.082 421.917 230.034 423.869C231.986 425.821 233.083 428.469 233.083 431.229V431.568L206.338 431.569L206.338 420.82Z" fill="#2F2E41"/>
<path d="M229.782 249.972C229.782 249.972 232.063 282.461 227.57 298.823C223.077 315.185 222.274 414.135 222.274 414.135H207.213L194.159 279.444L164.065 414.61L149.719 413.623L157.586 254.348L229.782 249.972Z" fill="#2F2E41"/>
<path d="M163.81 140.454L175.324 132.052L194.618 136.253L199.84 148.662L208.839 153.124C211.798 154.591 214.357 156.755 216.295 159.429C218.233 162.103 219.493 165.208 219.966 168.476L232.823 257.257L157.586 254.348L148.478 149.792C148.383 148.7 148.508 147.6 148.846 146.557C149.183 145.514 149.727 144.549 150.444 143.72C151.161 142.891 152.037 142.213 153.02 141.729C154.003 141.244 155.074 140.961 156.169 140.898L163.81 140.454Z" fill="#3F3D56"/>
<path d="M213.6 160.059L220.549 169.426L250.815 261.738L236.628 267.418L213.911 224.403L213.6 160.059Z" fill="#3F3D56"/>
<path d="M188.411 127.665C197.692 127.665 205.215 120.142 205.215 110.861C205.215 101.58 197.692 94.0569 188.411 94.0569C179.13 94.0569 171.607 101.58 171.607 110.861C171.607 120.142 179.13 127.665 188.411 127.665Z" fill="#FFB9B9"/>
<path opacity="0.1" d="M151.778 179.997L179.2 218.137L209.852 238.125L151.778 179.997Z" fill="black"/>
<path d="M179.506 123.009C178.337 120.675 177.134 118.135 177.581 115.564C178.028 112.992 180.979 110.751 183.256 112.026C184.201 108.611 188.384 107.117 191.906 107.511C195.427 107.905 198.669 109.604 202.137 110.333C205.604 111.062 209.815 110.484 211.689 107.476L207.205 107.399L211.875 101.983L206.462 101.578C208.337 99.5546 207.839 96.1169 206.024 94.0397C204.209 91.9624 201.454 90.9796 198.767 90.3581C193.402 89.1214 187.841 88.9935 182.424 89.9824C179.871 90.3761 177.41 91.2323 175.164 92.5091C173.048 93.7993 171.3 95.6121 170.088 97.7731C168.78 100.211 168.073 102.926 168.025 105.692C167.946 109.398 168.797 113.064 170.502 116.355C172.206 119.646 174.71 122.457 177.783 124.529" fill="#2F2E41"/>
<path d="M805.173 432H283.684C278.314 431.994 273.165 429.858 269.368 426.061C265.57 422.263 263.434 417.115 263.428 411.744V20.2559C263.434 14.8855 265.57 9.73681 269.368 5.93942C273.165 2.14203 278.314 0.00602914 283.684 0H805.173C810.543 0.00612447 815.692 2.14218 819.489 5.93956C823.286 9.73694 825.422 14.8856 825.429 20.2559V411.744C825.422 417.114 823.286 422.263 819.489 426.06C815.692 429.858 810.543 431.994 805.173 432Z" fill="#E4E4E4"/>
<path d="M673.924 179.75H593.424C589.446 179.75 585.631 178.169 582.818 175.356C580.005 172.543 578.424 168.728 578.424 164.75C578.424 160.772 580.005 156.956 582.818 154.143C585.631 151.33 589.446 149.75 593.424 149.75H673.924C677.903 149.75 681.718 151.33 684.531 154.143C687.344 156.956 688.924 160.772 688.924 164.75C688.924 168.728 687.344 172.543 684.531 175.356C681.718 178.169 677.903 179.75 673.924 179.75Z" fill="white"/>
<path d="M603.424 220.75H584.424C582.966 220.75 581.567 220.17 580.535 219.139C579.504 218.107 578.924 216.708 578.924 215.25C578.924 213.791 579.504 212.392 580.535 211.361C581.567 210.329 582.966 209.75 584.424 209.75H603.424C604.883 209.75 606.282 210.329 607.313 211.361C608.345 212.392 608.924 213.791 608.924 215.25C608.924 216.708 608.345 218.107 607.313 219.139C606.282 220.17 604.883 220.75 603.424 220.75Z" fill="white"/>
<path d="M682.424 220.75H663.424C661.966 220.75 660.567 220.17 659.535 219.139C658.504 218.107 657.924 216.708 657.924 215.25C657.924 213.791 658.504 212.392 659.535 211.361C660.567 210.329 661.966 209.75 663.424 209.75H682.424C683.883 209.75 685.282 210.329 686.313 211.361C687.345 212.392 687.924 213.791 687.924 215.25C687.924 216.708 687.345 218.107 686.313 219.139C685.282 220.17 683.883 220.75 682.424 220.75Z" fill="white"/>
<path d="M642.424 220.75H623.424C621.966 220.75 620.567 220.17 619.535 219.139C618.504 218.107 617.924 216.708 617.924 215.25C617.924 213.791 618.504 212.392 619.535 211.361C620.567 210.329 621.966 209.75 623.424 209.75H642.424C643.883 209.75 645.282 210.329 646.313 211.361C647.345 212.392 647.924 213.791 647.924 215.25C647.924 216.708 647.345 218.107 646.313 219.139C645.282 220.17 643.883 220.75 642.424 220.75Z" fill="white"/>
<path d="M603.424 241.75H584.424C582.966 241.75 581.567 241.17 580.535 240.139C579.504 239.107 578.924 237.708 578.924 236.25C578.924 234.791 579.504 233.392 580.535 232.361C581.567 231.329 582.966 230.75 584.424 230.75H603.424C604.883 230.75 606.282 231.329 607.313 232.361C608.345 233.392 608.924 234.791 608.924 236.25C608.924 237.708 608.345 239.107 607.313 240.139C606.282 241.17 604.883 241.75 603.424 241.75Z" fill="white"/>
<path d="M682.424 241.75H663.424C661.966 241.75 660.567 241.17 659.535 240.139C658.504 239.107 657.924 237.708 657.924 236.25C657.924 234.791 658.504 233.392 659.535 232.361C660.567 231.329 661.966 230.75 663.424 230.75H682.424C683.883 230.75 685.282 231.329 686.313 232.361C687.345 233.392 687.924 234.791 687.924 236.25C687.924 237.708 687.345 239.107 686.313 240.139C685.282 241.17 683.883 241.75 682.424 241.75Z" fill="white"/>
<path d="M642.424 241.75H623.424C621.966 241.75 620.567 241.17 619.535 240.139C618.504 239.107 617.924 237.708 617.924 236.25C617.924 234.791 618.504 233.392 619.535 232.361C620.567 231.329 621.966 230.75 623.424 230.75H642.424C643.883 230.75 645.282 231.329 646.313 232.361C647.345 233.392 647.924 234.791 647.924 236.25C647.924 237.708 647.345 239.107 646.313 240.139C645.282 241.17 643.883 241.75 642.424 241.75Z" fill="white"/>
<path d="M603.424 262.75H584.424C582.966 262.75 581.567 262.17 580.535 261.139C579.504 260.107 578.924 258.708 578.924 257.25C578.924 255.791 579.504 254.392 580.535 253.361C581.567 252.329 582.966 251.75 584.424 251.75H603.424C604.883 251.75 606.282 252.329 607.313 253.361C608.345 254.392 608.924 255.791 608.924 257.25C608.924 258.708 608.345 260.107 607.313 261.139C606.282 262.17 604.883 262.75 603.424 262.75Z" fill="white"/>
<path d="M682.424 262.75H663.424C661.966 262.75 660.567 262.17 659.535 261.139C658.504 260.107 657.924 258.708 657.924 257.25C657.924 255.791 658.504 254.392 659.535 253.361C660.567 252.329 661.966 251.75 663.424 251.75H682.424C683.883 251.75 685.282 252.329 686.313 253.361C687.345 254.392 687.924 255.791 687.924 257.25C687.924 258.708 687.345 260.107 686.313 261.139C685.282 262.17 683.883 262.75 682.424 262.75Z" fill="white"/>
<path d="M642.424 262.75H623.424C621.966 262.75 620.567 262.17 619.535 261.139C618.504 260.107 617.924 258.708 617.924 257.25C617.924 255.791 618.504 254.392 619.535 253.361C620.567 252.329 621.966 251.75 623.424 251.75H642.424C643.883 251.75 645.282 252.329 646.313 253.361C647.345 254.392 647.924 255.791 647.924 257.25C647.924 258.708 647.345 260.107 646.313 261.139C645.282 262.17 643.883 262.75 642.424 262.75Z" fill="white"/>
<path d="M603.424 283.75H584.424C582.966 283.75 581.567 283.17 580.535 282.139C579.504 281.107 578.924 279.709 578.924 278.25C578.924 276.791 579.504 275.392 580.535 274.361C581.567 273.329 582.966 272.75 584.424 272.75H603.424C604.883 272.75 606.282 273.329 607.313 274.361C608.345 275.392 608.924 276.791 608.924 278.25C608.924 279.709 608.345 281.107 607.313 282.139C606.282 283.17 604.883 283.75 603.424 283.75Z" fill="white"/>
<path d="M682.424 283.75H663.424C661.966 283.75 660.567 283.17 659.535 282.139C658.504 281.107 657.924 279.709 657.924 278.25C657.924 276.791 658.504 275.392 659.535 274.361C660.567 273.329 661.966 272.75 663.424 272.75H682.424C683.883 272.75 685.282 273.329 686.313 274.361C687.345 275.392 687.924 276.791 687.924 278.25C687.924 279.709 687.345 281.107 686.313 282.139C685.282 283.17 683.883 283.75 682.424 283.75Z" fill="white"/>
<path d="M642.424 283.75H623.424C621.966 283.75 620.567 283.17 619.535 282.139C618.504 281.107 617.924 279.709 617.924 278.25C617.924 276.791 618.504 275.392 619.535 274.361C620.567 273.329 621.966 272.75 623.424 272.75H642.424C643.883 272.75 645.282 273.329 646.313 274.361C647.345 275.392 647.924 276.791 647.924 278.25C647.924 279.709 647.345 281.107 646.313 282.139C645.282 283.17 643.883 283.75 642.424 283.75Z" fill="white"/>
<path d="M474.924 261.75C503.091 261.75 525.924 238.916 525.924 210.75C525.924 182.583 503.091 159.75 474.924 159.75C446.758 159.75 423.924 182.583 423.924 210.75C423.924 238.916 446.758 261.75 474.924 261.75Z" fill="#CACACA"/>
<path d="M474.924 273.25C470.947 273.245 467.135 271.663 464.323 268.851C461.511 266.039 459.929 262.227 459.924 258.25V163.25C459.923 161.279 460.309 159.327 461.063 157.506C461.816 155.684 462.92 154.029 464.313 152.635C465.706 151.241 467.361 150.135 469.181 149.381C471.002 148.626 472.953 148.238 474.924 148.238C476.895 148.238 478.847 148.626 480.667 149.381C482.488 150.135 484.142 151.241 485.535 152.635C486.928 154.029 488.033 155.684 488.786 157.506C489.539 159.327 489.926 161.279 489.924 163.25V258.25C489.92 262.227 488.338 266.039 485.526 268.851C482.714 271.663 478.901 273.245 474.924 273.25Z" fill="white"/>
<path d="M608.161 173.309H594.161C593.63 173.309 593.121 173.098 592.746 172.723C592.371 172.348 592.161 171.839 592.161 171.309C592.161 170.778 592.371 170.27 592.746 169.895C593.121 169.52 593.63 169.309 594.161 169.309H608.161C608.691 169.309 609.2 169.52 609.575 169.895C609.95 170.27 610.161 170.778 610.161 171.309C610.161 171.839 609.95 172.348 609.575 172.723C609.2 173.098 608.691 173.309 608.161 173.309Z" fill="#E4E4E4"/>
<path d="M630.161 173.809H616.161C615.63 173.809 615.121 173.598 614.746 173.223C614.371 172.848 614.161 172.339 614.161 171.809C614.161 171.278 614.371 170.77 614.746 170.395C615.121 170.02 615.63 169.809 616.161 169.809H630.161C630.691 169.809 631.2 170.02 631.575 170.395C631.95 170.77 632.161 171.278 632.161 171.809C632.161 172.339 631.95 172.848 631.575 173.223C631.2 173.598 630.691 173.809 630.161 173.809Z" fill="#E4E4E4"/>
<path d="M652.161 174.309H638.161C637.63 174.309 637.121 174.098 636.746 173.723C636.371 173.348 636.161 172.839 636.161 172.309C636.161 171.778 636.371 171.27 636.746 170.895C637.121 170.52 637.63 170.309 638.161 170.309H652.161C652.691 170.309 653.2 170.52 653.575 170.895C653.95 171.27 654.161 171.778 654.161 172.309C654.161 172.839 653.95 173.348 653.575 173.723C653.2 174.098 652.691 174.309 652.161 174.309Z" fill="#E4E4E4"/>
<path d="M674.161 174.809H660.161C659.63 174.809 659.121 174.598 658.746 174.223C658.371 173.848 658.161 173.339 658.161 172.809C658.161 172.278 658.371 171.77 658.746 171.395C659.121 171.02 659.63 170.809 660.161 170.809H674.161C674.691 170.809 675.2 171.02 675.575 171.395C675.95 171.77 676.161 172.278 676.161 172.809C676.161 173.339 675.95 173.848 675.575 174.223C675.2 174.598 674.691 174.809 674.161 174.809Z" fill="#E4E4E4"/>
<path d="M329.924 370.249C329.923 372.725 330.414 375.177 331.369 377.462C332.323 379.747 333.722 381.819 335.484 383.559H327.224C324.786 383.559 322.373 383.079 320.121 382.146C317.87 381.213 315.824 379.846 314.1 378.123C312.377 376.4 311.01 374.354 310.077 372.102C309.144 369.85 308.664 367.437 308.664 365V64.1179C308.664 61.6807 309.144 59.2674 310.077 57.0157C311.01 54.764 312.377 52.7181 314.1 50.9947C315.824 49.2713 317.87 47.9043 320.121 46.9716C322.373 46.0389 324.786 45.5589 327.224 45.5589H339.245C336.409 47.2077 334.057 49.5716 332.421 52.4143C330.786 55.2571 329.925 58.4792 329.924 61.7589L329.924 370.249Z" fill="#CACACA"/>
<path d="M327.924 133.479C321.604 131.709 315.261 130.069 308.894 128.559C287.123 123.362 265.051 119.514 242.805 117.039C239.034 116.046 235.023 116.583 231.647 118.532C228.27 120.482 225.8 123.687 224.774 127.449L213.664 168.449C212.644 172.228 213.166 176.258 215.114 179.653C217.062 183.048 220.277 185.532 224.055 186.559L224.205 186.589C238.905 188.259 253.745 190.579 268.504 193.539C269.825 193.799 271.135 194.069 272.455 194.349C277.185 195.329 281.901 196.376 286.604 197.489C288.664 197.969 290.714 198.469 292.774 198.979C298.314 200.359 303.858 201.829 309.405 203.389C315.575 205.129 321.748 206.986 327.924 208.959C328.595 209.159 329.265 209.369 329.924 209.589V134.049C329.265 133.849 328.595 133.659 327.924 133.479Z" fill="white"/>
<path d="M327.924 133.479C321.604 131.709 315.261 130.069 308.894 128.559C287.123 123.362 265.051 119.514 242.805 117.039C239.034 116.046 235.023 116.583 231.647 118.532C228.27 120.482 225.8 123.687 224.774 127.449L213.664 168.449C212.644 172.228 213.166 176.258 215.114 179.653C217.062 183.048 220.277 185.532 224.055 186.559L224.205 186.589C238.905 188.259 253.745 190.579 268.504 193.539C269.825 193.799 271.135 194.069 272.455 194.349C277.185 195.329 281.901 196.376 286.604 197.489C288.664 197.969 290.714 198.469 292.774 198.979C298.314 200.359 303.858 201.829 309.405 203.389C315.575 205.129 321.748 206.986 327.924 208.959C328.595 209.159 329.265 209.369 329.924 209.589V207.479C329.254 207.269 328.584 207.059 327.924 206.849C322.245 205.039 316.571 203.335 310.905 201.739C308.785 201.129 306.664 200.539 304.544 199.969C300.725 198.939 296.915 197.952 293.115 197.009C291.095 196.499 289.078 196.009 287.064 195.539C286.914 195.499 286.754 195.469 286.604 195.429C283.174 194.619 279.738 193.845 276.294 193.109C274.974 192.829 273.655 192.549 272.334 192.279C256.414 188.979 240.374 186.409 224.504 184.609C221.258 183.705 218.501 181.555 216.832 178.628C215.163 175.7 214.719 172.232 215.595 168.979L226.704 127.969C227.593 124.706 229.74 121.929 232.674 120.247C235.608 118.565 239.09 118.116 242.354 118.999L242.504 119.019C264.468 121.458 286.262 125.238 307.764 130.339C307.984 130.399 308.204 130.449 308.424 130.499C314.945 132.059 321.445 133.745 327.924 135.559C328.584 135.739 329.254 135.929 329.924 136.129V134.049C329.265 133.849 328.595 133.659 327.924 133.479Z" fill="#FBB03B"/>
<path d="M329.924 135.089V208.529C329.254 208.309 328.595 208.099 327.924 207.889C322.015 205.999 316.085 204.219 310.135 202.549C304.424 200.929 298.694 199.406 292.945 197.979C290.905 197.479 288.874 196.989 286.834 196.509C286.754 196.149 286.674 195.789 286.604 195.429C286.234 193.709 285.945 191.969 285.724 190.219C285.624 189.549 285.555 188.879 285.484 188.199C284.432 177.485 285.899 166.674 289.767 156.628C293.635 146.582 299.799 137.58 307.765 130.339C308.055 130.059 308.354 129.789 308.655 129.529C315.115 131.069 321.538 132.736 327.924 134.529C328.595 134.699 329.265 134.889 329.924 135.089Z" fill="#FBB03B"/>
<path d="M263.515 165.159L235.705 161.879C234.726 161.763 233.735 161.842 232.787 162.109C231.838 162.377 230.952 162.829 230.179 163.439C229.405 164.049 228.76 164.805 228.278 165.665C227.797 166.525 227.49 167.471 227.375 168.449C227.259 169.427 227.337 170.419 227.605 171.367C227.873 172.315 228.324 173.201 228.934 173.975C229.545 174.748 230.301 175.394 231.161 175.875C232.02 176.356 232.966 176.663 233.945 176.779L261.754 180.059C263.728 180.287 265.711 179.723 267.269 178.491C268.827 177.259 269.833 175.46 270.066 173.487C270.299 171.514 269.74 169.529 268.512 167.968C267.284 166.407 265.487 165.397 263.515 165.159ZM268.095 173.259C267.92 174.706 267.179 176.025 266.034 176.927C264.888 177.829 263.432 178.239 261.984 178.069L234.174 174.789C232.73 174.613 231.415 173.872 230.516 172.728C229.617 171.584 229.208 170.131 229.379 168.686C229.549 167.241 230.286 165.923 231.426 165.02C232.567 164.117 234.019 163.703 235.464 163.869L263.274 167.149C264.722 167.324 266.041 168.065 266.944 169.21C267.848 170.355 268.261 171.81 268.095 173.259Z" fill="#FBB03B"/>
<path d="M329.924 152.289V187.119C329.282 187.504 328.614 187.845 327.924 188.139C324.335 189.741 320.356 190.26 316.476 189.631C312.595 189.002 308.984 187.253 306.084 184.599C305.805 184.349 305.524 184.079 305.254 183.799C304.984 183.529 304.725 183.239 304.475 182.949C301.456 179.481 299.711 175.088 299.529 170.494C299.346 165.9 300.738 161.382 303.472 157.686C306.207 153.991 310.121 151.339 314.567 150.17C319.014 149.002 323.726 149.386 327.924 151.259C328.609 151.566 329.277 151.91 329.924 152.289Z" fill="white"/>
<path d="M327.924 177.499C320.055 179.139 312.238 180.956 304.475 182.949C301.575 183.689 298.685 184.456 295.805 185.249C292.365 186.199 288.925 187.182 285.484 188.199C281.095 189.499 276.711 190.859 272.334 192.279C271.064 192.699 269.785 193.119 268.504 193.539C256.334 197.599 244.245 202.099 232.354 207.009C228.571 207.955 225.314 210.357 223.293 213.692C221.272 217.028 220.651 221.027 221.564 224.819L231.595 266.099C232.523 269.901 234.921 273.18 238.264 275.215C241.606 277.251 245.62 277.878 249.424 276.959L249.564 276.909C269.117 268.889 289.129 262.037 309.495 256.389C315.575 254.699 321.718 253.106 327.924 251.609C328.595 251.449 329.254 251.289 329.924 251.139V177.089C329.254 177.209 328.595 177.349 327.924 177.499Z" fill="white"/>
<path d="M327.924 177.499C320.055 179.139 312.238 180.956 304.475 182.949C301.575 183.689 298.685 184.456 295.805 185.249C292.365 186.199 288.925 187.182 285.484 188.199C281.095 189.499 276.711 190.859 272.334 192.279C271.064 192.699 269.785 193.119 268.504 193.539C256.334 197.599 244.245 202.099 232.354 207.009C228.571 207.955 225.314 210.357 223.293 213.692C221.272 217.028 220.651 221.027 221.564 224.819L231.595 266.099C232.523 269.901 234.921 273.18 238.264 275.215C241.606 277.251 245.62 277.878 249.424 276.959L249.564 276.909C269.117 268.889 289.129 262.037 309.495 256.389C315.575 254.699 321.718 253.106 327.924 251.609C328.595 251.449 329.254 251.289 329.924 251.139V249.079C329.254 249.239 328.595 249.399 327.924 249.559C327.424 249.679 326.915 249.799 326.415 249.919C320.535 251.349 314.718 252.862 308.964 254.459C308.814 254.499 308.655 254.549 308.504 254.589C288.242 260.224 268.331 267.053 248.874 275.039C245.594 275.808 242.142 275.251 239.269 273.489C236.397 271.727 234.336 268.902 233.535 265.629L223.515 224.349C222.719 221.062 223.26 217.594 225.019 214.705C226.777 211.816 229.609 209.742 232.894 208.939L233.044 208.889C245.995 203.529 259.174 198.669 272.455 194.349C273.734 193.929 275.015 193.519 276.294 193.109C279.435 192.119 282.578 191.156 285.725 190.219C289.044 189.229 292.361 188.276 295.674 187.359C295.894 187.299 296.115 187.239 296.334 187.179C299.575 186.289 302.825 185.429 306.084 184.599C313.314 182.759 320.594 181.069 327.924 179.529C328.584 179.389 329.254 179.249 329.924 179.119V177.089C329.254 177.209 328.595 177.349 327.924 177.499Z" fill="#FBB03B"/>
<path d="M329.924 178.099V250.109C329.265 250.259 328.595 250.409 327.924 250.569C321.664 252.089 315.431 253.709 309.225 255.429C308.975 255.149 308.734 254.869 308.504 254.589C302.025 247.004 297.264 238.106 294.548 228.507C291.833 218.907 291.228 208.834 292.774 198.979C292.825 198.649 292.885 198.309 292.945 197.979C292.994 197.659 293.055 197.329 293.115 197.009C293.732 193.734 294.587 190.509 295.674 187.359C295.805 186.979 295.934 186.599 296.075 186.219C299.124 185.379 302.184 184.572 305.254 183.799C312.765 181.859 320.321 180.096 327.924 178.509C328.584 178.359 329.254 178.229 329.924 178.099Z" fill="#FBB03B"/>
<path d="M283.455 243.329C282.705 241.487 281.255 240.018 279.423 239.244C277.592 238.47 275.528 238.453 273.684 239.199L247.734 249.719C245.894 250.469 244.427 251.919 243.654 253.75C242.882 255.581 242.868 257.643 243.615 259.485C244.362 261.326 245.81 262.796 247.639 263.571C249.469 264.346 251.532 264.363 253.374 263.619L279.325 253.099C281.165 252.347 282.633 250.897 283.406 249.066C284.18 247.235 284.198 245.173 283.455 243.329ZM278.575 251.239L252.624 261.769C251.272 262.316 249.758 262.303 248.415 261.735C247.072 261.166 246.01 260.087 245.461 258.736C244.913 257.385 244.923 255.871 245.49 254.527C246.057 253.183 247.134 252.119 248.484 251.569L274.434 241.049C275.786 240.5 277.3 240.51 278.644 241.077C279.987 241.645 281.051 242.723 281.6 244.074C282.149 245.425 282.138 246.939 281.571 248.283C281.004 249.627 279.926 250.69 278.575 251.239Z" fill="#FBB03B"/>
<path d="M329.924 196.489V235.699C329.265 235.867 328.597 236 327.924 236.099C323.909 236.662 319.818 236.004 316.182 234.21C312.547 232.417 309.534 229.572 307.537 226.044C305.54 222.516 304.65 218.469 304.983 214.429C305.316 210.389 306.857 206.542 309.405 203.389C309.635 203.099 309.874 202.819 310.135 202.549C310.374 202.269 310.635 201.999 310.905 201.739C313.116 199.552 315.802 197.905 318.754 196.927C321.706 195.948 324.845 195.665 327.924 196.099C328.598 196.189 329.266 196.319 329.924 196.489Z" fill="white"/>
<path d="M327.924 128.269V228.079C328.595 227.859 329.265 227.649 329.924 227.449V129.179C329.254 128.869 328.595 128.569 327.924 128.269ZM327.924 128.269V228.079C328.595 227.859 329.265 227.649 329.924 227.449V129.179C329.254 128.869 328.595 128.569 327.924 128.269ZM327.924 128.269V228.079C328.595 227.859 329.265 227.649 329.924 227.449V129.179C329.254 128.869 328.595 128.569 327.924 128.269ZM327.924 135.559V250.569C328.595 250.409 329.265 250.259 329.924 250.109V136.129C329.254 135.929 328.584 135.739 327.924 135.559ZM327.924 135.559V250.569C328.595 250.409 329.265 250.259 329.924 250.109V136.129C329.254 135.929 328.584 135.739 327.924 135.559ZM327.924 135.559V250.569C328.595 250.409 329.265 250.259 329.924 250.109V136.129C329.254 135.929 328.584 135.739 327.924 135.559ZM327.924 135.559V250.569C328.595 250.409 329.265 250.259 329.924 250.109V136.129C329.254 135.929 328.584 135.739 327.924 135.559ZM327.924 135.559V251.609C328.595 251.449 329.254 251.289 329.924 251.139V136.129C329.254 135.929 328.584 135.739 327.924 135.559ZM764.174 40.9989H348.684C343.181 41.008 337.906 43.1981 334.015 47.0894C330.124 50.9807 327.933 56.2558 327.924 61.7589V370.249C327.934 375.751 330.124 381.025 334.016 384.915C337.907 388.804 343.182 390.992 348.684 390.999H764.174C769.675 390.992 774.949 388.804 778.839 384.914C782.729 381.024 784.918 375.75 784.924 370.249V61.7589C784.92 56.2561 782.732 50.9799 778.842 47.088C774.952 43.196 769.677 41.0062 764.174 40.9989ZM782.924 370.249C782.919 375.22 780.942 379.986 777.427 383.501C773.912 387.017 769.145 388.994 764.174 388.999H348.684C343.712 388.994 338.945 387.018 335.428 383.503C331.911 379.988 329.932 375.221 329.924 370.249V61.7589C329.932 56.7857 331.911 52.0183 335.427 48.5018C338.944 44.9852 343.711 43.0063 348.684 42.9989H764.174C769.147 43.0046 773.914 44.9833 777.43 48.5005C780.945 52.0177 782.921 56.7861 782.924 61.7589V370.249ZM327.924 135.559V249.559C328.595 249.399 329.254 249.239 329.924 249.079V136.129C329.254 135.929 328.584 135.739 327.924 135.559ZM327.924 135.559V250.569C328.595 250.409 329.265 250.259 329.924 250.109V136.129C329.254 135.929 328.584 135.739 327.924 135.559ZM327.924 135.559V250.569C328.595 250.409 329.265 250.259 329.924 250.109V136.129C329.254 135.929 328.584 135.739 327.924 135.559ZM327.924 135.559V250.569C328.595 250.409 329.265 250.259 329.924 250.109V136.129C329.254 135.929 328.584 135.739 327.924 135.559ZM327.924 128.269V228.079C328.595 227.859 329.265 227.649 329.924 227.449V129.179C329.254 128.869 328.595 128.569 327.924 128.269ZM327.924 128.269V228.079C328.595 227.859 329.265 227.649 329.924 227.449V129.179C329.254 128.869 328.595 128.569 327.924 128.269Z" fill="#2F2E41"/>
<path d="M238.85 233.874C238.458 232.96 237.871 232.143 237.129 231.48C236.387 230.818 235.509 230.326 234.556 230.04C233.604 229.754 232.6 229.68 231.616 229.823C230.632 229.967 229.691 230.324 228.86 230.871L209.689 216.14L208.784 228.671L227.127 240.738C228.138 242.073 229.603 242.992 231.245 243.319C232.887 243.646 234.593 243.359 236.038 242.513C237.483 241.667 238.567 240.32 239.086 238.728C239.604 237.136 239.52 235.409 238.85 233.874Z" fill="#FFB6B6"/>
<path d="M161.599 144.976L155.291 141.995C155.291 141.995 145.129 144.854 150.066 158.292L179.945 213.956L216.424 235.313L227.796 225.236L191.291 196.352L161.599 144.976Z" fill="#3F3D56"/>
</svg>
